<svg width="40" height="40" viewBox="0 0 40 40" fill="none" xmlns="http://www.w3.org/2000/svg">
<path d="M36.2206 0C34.8653 0.222119 33.5532 0.470891 32.4224 0.851158C31.257 1.24209 30.2729 1.75029 29.5133 2.45841C30.9981 2.75427 32.4742 3.20739 33.8381 3.81777C33.8467 3.76624 33.864 3.71471 33.8726 3.66407C34.0366 2.97195 34.3905 2.35001 34.8049 1.75118C35.2279 1.15057 35.7285 0.56507 36.2206 0ZM25.3353 3.6463C23.6779 3.65963 22.1154 3.91551 20.8465 4.41305C19.0423 5.11939 17.8597 6.23798 17.4972 7.87277C17.4195 8.21039 17.5144 9.03667 17.9288 9.96068C18.3431 10.8847 19.0423 11.9242 20.0005 12.8482C21.9083 14.6963 24.7914 16.1089 28.6587 15.5048C30.4283 15.2293 31.8872 15.7891 32.7331 16.9263C33.5791 18.0725 33.8726 19.6362 33.8899 21.3953C33.933 24.3007 33.1907 27.819 32.2584 31.0975C38.9743 26.353 41.6848 17.1573 38.9398 10.5027C37.4291 6.85103 32.3878 4.30555 27.4847 3.76002C26.8805 3.69161 26.2676 3.65607 25.6719 3.64719L25.3353 3.6463ZM3.20124 4.764C3.04068 6.72664 3.16585 8.72571 3.44122 10.6448C4.37782 9.57864 5.43873 8.60132 6.61185 7.74838C5.43873 7.06426 4.29926 6.07716 3.20124 4.764ZM23.9196 4.95502C23.9225 4.95501 23.9253 4.95501 23.9282 4.95502C24.102 4.954 24.2706 5.00342 24.4132 5.0972C24.5559 5.19097 24.6663 5.32501 24.731 5.48277C24.7744 5.58926 24.7958 5.70389 24.7941 5.82008C24.7924 5.93627 24.7676 6.05174 24.7211 6.15987C24.6746 6.268 24.6073 6.36666 24.5231 6.4502C24.4389 6.53373 24.3394 6.6005 24.2303 6.64668C24.0112 6.74046 23.7664 6.74542 23.5495 6.66047C23.3327 6.57552 23.1615 6.4076 23.0736 6.19355C23.0301 6.08702 23.0085 5.97231 23.0102 5.85603C23.0118 5.73974 23.0366 5.62416 23.0831 5.51593C23.1296 5.4077 23.197 5.30895 23.2813 5.22535C23.3656 5.14174 23.4651 5.07494 23.5743 5.02876C23.6841 4.98187 23.8014 4.9568 23.9196 4.95502ZM27.0272 8.63686C29.427 9.10775 32.103 9.45425 34.2352 10.9735C36.3673 12.4928 37.7658 15.2205 37.5931 19.8405L36.0393 19.7872C36.2033 15.4959 35.0552 13.5057 33.3547 12.2885C31.6455 11.0713 29.1853 10.6803 26.7337 10.2006L27.0272 8.63686ZM13.1638 8.79678C11.9034 9.02779 10.6345 9.06333 9.38282 8.81455C8.94257 10.325 8.53685 11.8976 8.23472 13.4257C9.99571 12.1197 11.6876 10.5293 13.1638 8.79678ZM7.74268 8.9034C1.02936 13.6479 -1.6855 22.8436 1.05957 29.4982C2.57195 33.1587 7.6132 35.6998 12.5077 36.2417C14.9593 36.5172 17.3504 36.2951 19.1546 35.5932C20.9587 34.8824 22.1413 33.7629 22.5039 32.1281C22.5816 31.7905 22.4866 30.9642 22.0723 30.0402C21.6579 29.1162 20.9587 28.0767 20.0005 27.1527C18.0928 25.3046 15.2096 23.892 11.3337 24.4961C9.57273 24.7716 8.11387 24.2118 7.26791 23.0746C6.42194 21.9284 6.12845 20.3647 6.11118 18.6055C6.06802 15.7002 6.8104 12.1819 7.74268 8.9034ZM21.8824 10.245C22.0567 10.2444 22.2258 10.2946 22.3685 10.3894C22.5112 10.4841 22.6213 10.6193 22.6852 10.7781C22.7733 10.9921 22.771 11.2349 22.6788 11.4531C22.5865 11.6713 22.4119 11.8471 22.1931 11.942C22.0841 11.9882 21.9676 12.0129 21.8504 12.0147C21.7332 12.0165 21.6175 11.9953 21.5101 11.9524C21.4026 11.9094 21.3054 11.8456 21.2241 11.7645C21.1429 11.6835 21.0791 11.5868 21.0364 11.48C20.951 11.2669 20.9548 11.0263 21.0468 10.8102C21.1389 10.5941 21.3119 10.4198 21.5284 10.325C21.6405 10.2748 21.7609 10.2476 21.8824 10.245ZM29.3924 17.0329C29.2371 17.0418 29.0644 17.0596 28.8918 17.0862C27.571 17.2906 26.3366 17.2817 25.1972 17.1129C25.9223 18.801 27.4416 20.1959 29.1248 21.4664C29.0558 20.8623 28.9867 20.2314 28.9781 19.5829C28.9695 18.7655 29.0731 17.8859 29.3924 17.0329ZM10.8762 18.5345C10.9453 19.1386 11.0143 19.7694 11.0229 20.418C11.0316 21.2354 10.928 22.115 10.6086 22.9679C10.764 22.9591 10.9366 22.9413 11.1093 22.9146C12.43 22.7103 13.6644 22.7192 14.8039 22.888C14.0788 21.1999 12.5595 19.805 10.8762 18.5345ZM2.40621 20.1604L3.95829 20.2137C3.79859 24.505 4.94237 26.4952 6.64638 27.7124C8.35557 28.9296 10.8158 29.3205 13.2673 29.8003L12.9738 31.364C10.5741 30.8931 7.89806 30.5466 5.76589 29.0273C3.63372 27.5081 2.23356 24.7804 2.40621 20.1604ZM31.7663 26.5752C30.0053 27.8812 28.3134 29.4716 26.8373 31.2041C28.0976 30.9731 29.3666 30.9376 30.6182 31.1863C31.0585 29.6759 31.4642 28.1033 31.7663 26.5752ZM18.1618 27.9878C18.3367 27.9848 18.5069 28.033 18.6512 28.1262C18.7955 28.2194 18.9075 28.3536 18.9733 28.512C19.0167 28.6185 19.0381 28.7331 19.0364 28.8493C19.0347 28.9655 19.0099 29.081 18.9634 29.1891C18.9169 29.2973 18.8496 29.3959 18.7654 29.4795C18.6811 29.563 18.5817 29.6298 18.4726 29.6759C18.2535 29.7697 18.0087 29.7747 17.7918 29.6897C17.575 29.6048 17.4038 29.4368 17.3159 29.2228C17.2725 29.1163 17.2511 29.0017 17.2528 28.8855C17.2545 28.7693 17.2793 28.6538 17.3258 28.5457C17.3723 28.4376 17.4396 28.3389 17.5238 28.2554C17.608 28.1718 17.7075 28.1051 17.8166 28.0589C17.9265 28.0129 18.0439 27.9888 18.1618 27.9878ZM36.5572 29.3561C35.625 30.4222 34.5632 31.3996 33.3892 32.2525C34.5632 32.9455 35.7026 33.9228 36.7989 35.2378C36.963 33.2742 36.8335 31.2841 36.5572 29.3561ZM16.1074 33.2831C16.1102 33.2831 16.1131 33.2831 16.116 33.2831C16.2894 33.2818 16.4577 33.3307 16.6003 33.4239C16.7429 33.517 16.8536 33.6502 16.9188 33.8073C16.9622 33.9138 16.9836 34.0284 16.9819 34.1446C16.9802 34.2608 16.9554 34.3763 16.9089 34.4844C16.8624 34.5926 16.7951 34.6912 16.7109 34.7748C16.6267 34.8583 16.5272 34.9251 16.4181 34.9712C16.199 35.065 15.9542 35.07 15.7373 34.985C15.5205 34.9001 15.3493 34.7322 15.2614 34.5181C15.218 34.4116 15.1966 34.297 15.1983 34.1808C15.2 34.0646 15.2248 33.9491 15.2713 33.841C15.3178 33.7329 15.3851 33.6342 15.4693 33.5507C15.5535 33.4672 15.653 33.4004 15.7621 33.3542C15.872 33.3082 15.9894 33.2841 16.1074 33.2831ZM6.16297 36.1884C6.15434 36.2329 6.13708 36.2862 6.12845 36.3395C5.96443 37.0325 5.61483 37.6544 5.19616 38.2497C4.77577 38.8539 4.27941 39.4314 3.78737 40C5.13573 39.7779 6.44784 39.5291 7.57867 39.1471C8.74403 38.7561 9.72811 38.2497 10.4877 37.5478C9.003 37.2457 7.52688 36.7926 6.16297 36.1884Z" fill="white"/>
</svg>
