<svg width="35" height="35" viewBox="0 0 35 35" fill="currentColor" xmlns="http://www.w3.org/2000/svg">
<path d="M22.6768 18.9582C23.7705 18.9582 24.733 18.3603 25.2288 17.4561L30.4497 7.9915C30.9893 7.029 30.2893 5.83317 29.1809 5.83317H7.59759L6.22676 2.9165H1.45801V5.83317H4.37467L9.62467 16.9019L7.65592 20.4603C6.59134 22.4144 7.99134 24.7915 10.208 24.7915H27.708V21.8748H10.208L11.8122 18.9582H22.6768ZM8.98301 8.74984H26.7018L22.6768 16.0415H12.4393L8.98301 8.74984ZM10.208 26.2498C8.60384 26.2498 7.30592 27.5623 7.30592 29.1665C7.30592 30.7707 8.60384 32.0832 10.208 32.0832C11.8122 32.0832 13.1247 30.7707 13.1247 29.1665C13.1247 27.5623 11.8122 26.2498 10.208 26.2498ZM24.7913 26.2498C23.1872 26.2498 21.8893 27.5623 21.8893 29.1665C21.8893 30.7707 23.1872 32.0832 24.7913 32.0832C26.3955 32.0832 27.708 30.7707 27.708 29.1665C27.708 27.5623 26.3955 26.2498 24.7913 26.2498Z" fill="currentColor"/>
</svg>
