<svg width="20" height="20" viewBox="0 0 20 20" fill="none" xmlns="http://www.w3.org/2000/svg">
<path d="M5.77274 5.54529V3.63617C5.77274 3.12984 5.95232 2.64425 6.27199 2.28622C6.59165 1.92819 7.02521 1.72705 7.47728 1.72705H14.2955C14.7475 1.72705 15.1811 1.92819 15.5008 2.28622C15.8204 2.64425 16 3.12984 16 3.63617V15.0909C16 15.5972 15.8204 16.0828 15.5008 16.4408C15.1811 16.7989 14.7475 17 14.2955 17H7.81819C6.87686 17 5.77274 16.1452 5.77274 15.0909V13.1818" stroke="white" stroke-width="1.5" stroke-linecap="round" stroke-linejoin="round"/>
<path d="M9.86364 13.1816L13.2727 9.3634L9.86364 5.54517M1 9.3634H12.5909" stroke="white" stroke-width="1.5" stroke-linecap="round" stroke-linejoin="round"/>
</svg>
