<svg width="34" height="34" viewBox="0 0 34 34" fill="none" xmlns="http://www.w3.org/2000/svg">
<path d="M27.666 22.3332L32.9993 16.9998L27.666 11.6665" stroke="currentColor" stroke-width="2" stroke-linecap="round" stroke-linejoin="round"/>
<path d="M33 17H8.11111M20.5556 24.1111V28.7333C20.5556 29.2936 20.4452 29.8485 20.2308 30.3661C20.0164 30.8838 19.7021 31.3541 19.3059 31.7503C18.9097 32.1465 18.4393 32.4608 17.9217 32.6752C17.404 32.8896 16.8492 33 16.2889 33H5.26667C4.13508 33 3.04983 32.5505 2.24968 31.7503C1.44952 30.9502 1 29.8649 1 28.7333V5.26667C1 4.13508 1.44952 3.04983 2.24968 2.24968C3.04983 1.44952 4.13508 1 5.26667 1H16.2889C16.8492 1 17.404 1.11036 17.9217 1.32478C18.4393 1.5392 18.9097 1.85348 19.3059 2.24968C19.7021 2.64587 20.0164 3.11623 20.2308 3.63388C20.4452 4.15154 20.5556 4.70636 20.5556 5.26667V9.88889" stroke="currentColor" stroke-width="2" stroke-miterlimit="10" stroke-linecap="round"/>
</svg>
