<svg width="33" height="33" viewBox="0 0 33 33" fill="none" xmlns="http://www.w3.org/2000/svg">
<path d="M21.2074 0.701172H12.4714V7.67717H21.2074V0.701172Z" fill="currentColor"/>
<path d="M23.6091 0.701172V7.67717H32.6331C31.8171 3.27717 28.5691 0.717172 23.6091 0.701172Z" fill="currentColor"/>
<path d="M0.840332 10.0762V23.4042C0.840332 29.2282 4.31233 32.7002 10.1363 32.7002H23.5443C29.3683 32.7002 32.8403 29.2282 32.8403 23.4042V10.0762H0.840332ZM20.7443 23.3882L17.4163 25.3082C16.7123 25.7082 16.0243 25.9162 15.3843 25.9162C14.9043 25.9162 14.4723 25.8042 14.0723 25.5802C13.1443 25.0522 12.6323 23.9642 12.6323 22.5562V18.7162C12.6323 17.3082 13.1443 16.2202 14.0723 15.6922C15.0003 15.1482 16.1843 15.2442 17.4163 15.9642L20.7443 17.8842C21.9763 18.5882 22.6483 19.5802 22.6483 20.6522C22.6483 21.7242 21.9603 22.6682 20.7443 23.3882Z" fill="currentColor"/>
<path d="M10.0704 0.701172C5.11039 0.717172 1.86239 3.27717 1.04639 7.67717H10.0704V0.701172Z" fill="currentColor"/>
</svg>
